<mxfile host="app.diagrams.net" agent="Mozilla/5.0 (X11; Ubuntu; Linux x86_64; rv:133.0) Gecko/20100101 Firefox/133.0" version="24.7.17">
  <diagram name="Page-1" id="jgVyx60FC83hGIgB7haR">
    <mxGraphModel dx="1195" dy="617" grid="1" gridSize="10" guides="1" tooltips="1" connect="1" arrows="1" fold="1" page="1" pageScale="1" pageWidth="827" pageHeight="1169" math="0" shadow="0">
      <root>
        <mxCell id="0" />
        <mxCell id="1" parent="0" />
        <mxCell id="0NaVsoEw5bRBz_IptEVe-54" value="" style="rounded=0;whiteSpace=wrap;html=1;fillColor=#dae8fc;strokeColor=#6c8ebf;strokeWidth=2;" vertex="1" parent="1">
          <mxGeometry x="120" y="140" width="320" height="120" as="geometry" />
        </mxCell>
        <mxCell id="0NaVsoEw5bRBz_IptEVe-19" value="" style="rounded=0;whiteSpace=wrap;html=1;fillColor=#f8cecc;strokeColor=#b85450;strokeWidth=2;" vertex="1" parent="1">
          <mxGeometry x="130" y="150" width="100" height="100" as="geometry" />
        </mxCell>
        <mxCell id="0NaVsoEw5bRBz_IptEVe-1" value="" style="rounded=0;whiteSpace=wrap;html=1;fillColor=#fff2cc;strokeColor=#d6b656;strokeWidth=2;" vertex="1" parent="1">
          <mxGeometry x="140" y="160" width="20" height="20" as="geometry" />
        </mxCell>
        <mxCell id="0NaVsoEw5bRBz_IptEVe-3" value="" style="rounded=0;whiteSpace=wrap;html=1;fillColor=#fff2cc;strokeColor=#d6b656;strokeWidth=2;" vertex="1" parent="1">
          <mxGeometry x="160" y="160" width="20" height="20" as="geometry" />
        </mxCell>
        <mxCell id="0NaVsoEw5bRBz_IptEVe-4" value="" style="rounded=0;whiteSpace=wrap;html=1;fillColor=#fff2cc;strokeColor=#d6b656;strokeWidth=2;" vertex="1" parent="1">
          <mxGeometry x="180" y="160" width="20" height="20" as="geometry" />
        </mxCell>
        <mxCell id="0NaVsoEw5bRBz_IptEVe-5" value="" style="rounded=0;whiteSpace=wrap;html=1;fillColor=#fff2cc;strokeColor=#d6b656;strokeWidth=2;" vertex="1" parent="1">
          <mxGeometry x="200" y="160" width="20" height="20" as="geometry" />
        </mxCell>
        <mxCell id="0NaVsoEw5bRBz_IptEVe-7" value="" style="rounded=0;whiteSpace=wrap;html=1;fillColor=#fff2cc;strokeColor=#d6b656;strokeWidth=2;" vertex="1" parent="1">
          <mxGeometry x="140" y="180" width="20" height="20" as="geometry" />
        </mxCell>
        <mxCell id="0NaVsoEw5bRBz_IptEVe-8" value="" style="rounded=0;whiteSpace=wrap;html=1;fillColor=#fff2cc;strokeColor=#d6b656;strokeWidth=2;" vertex="1" parent="1">
          <mxGeometry x="160" y="180" width="20" height="20" as="geometry" />
        </mxCell>
        <mxCell id="0NaVsoEw5bRBz_IptEVe-9" value="" style="rounded=0;whiteSpace=wrap;html=1;fillColor=#fff2cc;strokeColor=#d6b656;strokeWidth=2;" vertex="1" parent="1">
          <mxGeometry x="180" y="180" width="20" height="20" as="geometry" />
        </mxCell>
        <mxCell id="0NaVsoEw5bRBz_IptEVe-10" value="" style="rounded=0;whiteSpace=wrap;html=1;fillColor=#fff2cc;strokeColor=#d6b656;strokeWidth=2;" vertex="1" parent="1">
          <mxGeometry x="200" y="180" width="20" height="20" as="geometry" />
        </mxCell>
        <mxCell id="0NaVsoEw5bRBz_IptEVe-11" value="" style="rounded=0;whiteSpace=wrap;html=1;fillColor=#fff2cc;strokeColor=#d6b656;strokeWidth=2;" vertex="1" parent="1">
          <mxGeometry x="140" y="200" width="20" height="20" as="geometry" />
        </mxCell>
        <mxCell id="0NaVsoEw5bRBz_IptEVe-12" value="" style="rounded=0;whiteSpace=wrap;html=1;fillColor=#fff2cc;strokeColor=#d6b656;strokeWidth=2;" vertex="1" parent="1">
          <mxGeometry x="160" y="200" width="20" height="20" as="geometry" />
        </mxCell>
        <mxCell id="0NaVsoEw5bRBz_IptEVe-13" value="" style="rounded=0;whiteSpace=wrap;html=1;fillColor=#fff2cc;strokeColor=#d6b656;strokeWidth=2;" vertex="1" parent="1">
          <mxGeometry x="180" y="200" width="20" height="20" as="geometry" />
        </mxCell>
        <mxCell id="0NaVsoEw5bRBz_IptEVe-14" value="" style="rounded=0;whiteSpace=wrap;html=1;fillColor=#fff2cc;strokeColor=#d6b656;strokeWidth=2;" vertex="1" parent="1">
          <mxGeometry x="200" y="200" width="20" height="20" as="geometry" />
        </mxCell>
        <mxCell id="0NaVsoEw5bRBz_IptEVe-15" value="" style="rounded=0;whiteSpace=wrap;html=1;fillColor=#fff2cc;strokeColor=#d6b656;strokeWidth=2;" vertex="1" parent="1">
          <mxGeometry x="140" y="220" width="20" height="20" as="geometry" />
        </mxCell>
        <mxCell id="0NaVsoEw5bRBz_IptEVe-16" value="" style="rounded=0;whiteSpace=wrap;html=1;fillColor=#fff2cc;strokeColor=#d6b656;strokeWidth=2;" vertex="1" parent="1">
          <mxGeometry x="160" y="220" width="20" height="20" as="geometry" />
        </mxCell>
        <mxCell id="0NaVsoEw5bRBz_IptEVe-17" value="" style="rounded=0;whiteSpace=wrap;html=1;fillColor=#fff2cc;strokeColor=#d6b656;strokeWidth=2;" vertex="1" parent="1">
          <mxGeometry x="180" y="220" width="20" height="20" as="geometry" />
        </mxCell>
        <mxCell id="0NaVsoEw5bRBz_IptEVe-18" value="" style="rounded=0;whiteSpace=wrap;html=1;fillColor=#fff2cc;strokeColor=#d6b656;strokeWidth=2;" vertex="1" parent="1">
          <mxGeometry x="200" y="220" width="20" height="20" as="geometry" />
        </mxCell>
        <mxCell id="0NaVsoEw5bRBz_IptEVe-20" value="" style="rounded=0;whiteSpace=wrap;html=1;fillColor=#f8cecc;strokeColor=#b85450;strokeWidth=2;" vertex="1" parent="1">
          <mxGeometry x="230" y="150" width="100" height="100" as="geometry" />
        </mxCell>
        <mxCell id="0NaVsoEw5bRBz_IptEVe-21" value="" style="rounded=0;whiteSpace=wrap;html=1;fillColor=#fff2cc;strokeColor=#d6b656;strokeWidth=2;" vertex="1" parent="1">
          <mxGeometry x="240" y="160" width="20" height="20" as="geometry" />
        </mxCell>
        <mxCell id="0NaVsoEw5bRBz_IptEVe-22" value="" style="rounded=0;whiteSpace=wrap;html=1;fillColor=#fff2cc;strokeColor=#d6b656;strokeWidth=2;" vertex="1" parent="1">
          <mxGeometry x="260" y="160" width="20" height="20" as="geometry" />
        </mxCell>
        <mxCell id="0NaVsoEw5bRBz_IptEVe-23" value="" style="rounded=0;whiteSpace=wrap;html=1;fillColor=#fff2cc;strokeColor=#d6b656;strokeWidth=2;" vertex="1" parent="1">
          <mxGeometry x="280" y="160" width="20" height="20" as="geometry" />
        </mxCell>
        <mxCell id="0NaVsoEw5bRBz_IptEVe-24" value="" style="rounded=0;whiteSpace=wrap;html=1;fillColor=#fff2cc;strokeColor=#d6b656;strokeWidth=2;" vertex="1" parent="1">
          <mxGeometry x="300" y="160" width="20" height="20" as="geometry" />
        </mxCell>
        <mxCell id="0NaVsoEw5bRBz_IptEVe-25" value="" style="rounded=0;whiteSpace=wrap;html=1;fillColor=#fff2cc;strokeColor=#d6b656;strokeWidth=2;" vertex="1" parent="1">
          <mxGeometry x="240" y="180" width="20" height="20" as="geometry" />
        </mxCell>
        <mxCell id="0NaVsoEw5bRBz_IptEVe-26" value="" style="rounded=0;whiteSpace=wrap;html=1;fillColor=#fff2cc;strokeColor=#d6b656;strokeWidth=2;" vertex="1" parent="1">
          <mxGeometry x="260" y="180" width="20" height="20" as="geometry" />
        </mxCell>
        <mxCell id="0NaVsoEw5bRBz_IptEVe-27" value="" style="rounded=0;whiteSpace=wrap;html=1;fillColor=#fff2cc;strokeColor=#d6b656;strokeWidth=2;" vertex="1" parent="1">
          <mxGeometry x="280" y="180" width="20" height="20" as="geometry" />
        </mxCell>
        <mxCell id="0NaVsoEw5bRBz_IptEVe-28" value="" style="rounded=0;whiteSpace=wrap;html=1;fillColor=#fff2cc;strokeColor=#d6b656;strokeWidth=2;" vertex="1" parent="1">
          <mxGeometry x="300" y="180" width="20" height="20" as="geometry" />
        </mxCell>
        <mxCell id="0NaVsoEw5bRBz_IptEVe-29" value="" style="rounded=0;whiteSpace=wrap;html=1;fillColor=#fff2cc;strokeColor=#d6b656;strokeWidth=2;" vertex="1" parent="1">
          <mxGeometry x="240" y="200" width="20" height="20" as="geometry" />
        </mxCell>
        <mxCell id="0NaVsoEw5bRBz_IptEVe-30" value="" style="rounded=0;whiteSpace=wrap;html=1;fillColor=#fff2cc;strokeColor=#d6b656;strokeWidth=2;" vertex="1" parent="1">
          <mxGeometry x="260" y="200" width="20" height="20" as="geometry" />
        </mxCell>
        <mxCell id="0NaVsoEw5bRBz_IptEVe-31" value="" style="rounded=0;whiteSpace=wrap;html=1;fillColor=#fff2cc;strokeColor=#d6b656;strokeWidth=2;" vertex="1" parent="1">
          <mxGeometry x="280" y="200" width="20" height="20" as="geometry" />
        </mxCell>
        <mxCell id="0NaVsoEw5bRBz_IptEVe-32" value="" style="rounded=0;whiteSpace=wrap;html=1;fillColor=#fff2cc;strokeColor=#d6b656;strokeWidth=2;" vertex="1" parent="1">
          <mxGeometry x="300" y="200" width="20" height="20" as="geometry" />
        </mxCell>
        <mxCell id="0NaVsoEw5bRBz_IptEVe-33" value="" style="rounded=0;whiteSpace=wrap;html=1;fillColor=#fff2cc;strokeColor=#d6b656;strokeWidth=2;" vertex="1" parent="1">
          <mxGeometry x="240" y="220" width="20" height="20" as="geometry" />
        </mxCell>
        <mxCell id="0NaVsoEw5bRBz_IptEVe-34" value="" style="rounded=0;whiteSpace=wrap;html=1;fillColor=#fff2cc;strokeColor=#d6b656;strokeWidth=2;" vertex="1" parent="1">
          <mxGeometry x="260" y="220" width="20" height="20" as="geometry" />
        </mxCell>
        <mxCell id="0NaVsoEw5bRBz_IptEVe-35" value="" style="rounded=0;whiteSpace=wrap;html=1;fillColor=#fff2cc;strokeColor=#d6b656;strokeWidth=2;" vertex="1" parent="1">
          <mxGeometry x="280" y="220" width="20" height="20" as="geometry" />
        </mxCell>
        <mxCell id="0NaVsoEw5bRBz_IptEVe-36" value="" style="rounded=0;whiteSpace=wrap;html=1;fillColor=#fff2cc;strokeColor=#d6b656;strokeWidth=2;" vertex="1" parent="1">
          <mxGeometry x="300" y="220" width="20" height="20" as="geometry" />
        </mxCell>
        <mxCell id="0NaVsoEw5bRBz_IptEVe-37" value="" style="rounded=0;whiteSpace=wrap;html=1;fillColor=#f8cecc;strokeColor=#b85450;strokeWidth=2;" vertex="1" parent="1">
          <mxGeometry x="330" y="150" width="100" height="100" as="geometry" />
        </mxCell>
        <mxCell id="0NaVsoEw5bRBz_IptEVe-38" value="" style="rounded=0;whiteSpace=wrap;html=1;fillColor=#fff2cc;strokeColor=#d6b656;strokeWidth=2;" vertex="1" parent="1">
          <mxGeometry x="340" y="160" width="20" height="20" as="geometry" />
        </mxCell>
        <mxCell id="0NaVsoEw5bRBz_IptEVe-39" value="" style="rounded=0;whiteSpace=wrap;html=1;fillColor=#fff2cc;strokeColor=#d6b656;strokeWidth=2;" vertex="1" parent="1">
          <mxGeometry x="360" y="160" width="20" height="20" as="geometry" />
        </mxCell>
        <mxCell id="0NaVsoEw5bRBz_IptEVe-40" value="" style="rounded=0;whiteSpace=wrap;html=1;fillColor=#fff2cc;strokeColor=#d6b656;strokeWidth=2;" vertex="1" parent="1">
          <mxGeometry x="380" y="160" width="20" height="20" as="geometry" />
        </mxCell>
        <mxCell id="0NaVsoEw5bRBz_IptEVe-41" value="" style="rounded=0;whiteSpace=wrap;html=1;fillColor=#fff2cc;strokeColor=#d6b656;strokeWidth=2;" vertex="1" parent="1">
          <mxGeometry x="400" y="160" width="20" height="20" as="geometry" />
        </mxCell>
        <mxCell id="0NaVsoEw5bRBz_IptEVe-42" value="" style="rounded=0;whiteSpace=wrap;html=1;fillColor=#fff2cc;strokeColor=#d6b656;strokeWidth=2;" vertex="1" parent="1">
          <mxGeometry x="340" y="180" width="20" height="20" as="geometry" />
        </mxCell>
        <mxCell id="0NaVsoEw5bRBz_IptEVe-43" value="" style="rounded=0;whiteSpace=wrap;html=1;fillColor=#fff2cc;strokeColor=#d6b656;strokeWidth=2;" vertex="1" parent="1">
          <mxGeometry x="360" y="180" width="20" height="20" as="geometry" />
        </mxCell>
        <mxCell id="0NaVsoEw5bRBz_IptEVe-44" value="" style="rounded=0;whiteSpace=wrap;html=1;fillColor=#fff2cc;strokeColor=#d6b656;strokeWidth=2;" vertex="1" parent="1">
          <mxGeometry x="380" y="180" width="20" height="20" as="geometry" />
        </mxCell>
        <mxCell id="0NaVsoEw5bRBz_IptEVe-45" value="" style="rounded=0;whiteSpace=wrap;html=1;fillColor=#fff2cc;strokeColor=#d6b656;strokeWidth=2;" vertex="1" parent="1">
          <mxGeometry x="400" y="180" width="20" height="20" as="geometry" />
        </mxCell>
        <mxCell id="0NaVsoEw5bRBz_IptEVe-46" value="" style="rounded=0;whiteSpace=wrap;html=1;fillColor=#fff2cc;strokeColor=#d6b656;strokeWidth=2;" vertex="1" parent="1">
          <mxGeometry x="340" y="200" width="20" height="20" as="geometry" />
        </mxCell>
        <mxCell id="0NaVsoEw5bRBz_IptEVe-47" value="" style="rounded=0;whiteSpace=wrap;html=1;fillColor=#fff2cc;strokeColor=#d6b656;strokeWidth=2;" vertex="1" parent="1">
          <mxGeometry x="360" y="200" width="20" height="20" as="geometry" />
        </mxCell>
        <mxCell id="0NaVsoEw5bRBz_IptEVe-48" value="" style="rounded=0;whiteSpace=wrap;html=1;fillColor=#fff2cc;strokeColor=#d6b656;strokeWidth=2;" vertex="1" parent="1">
          <mxGeometry x="380" y="200" width="20" height="20" as="geometry" />
        </mxCell>
        <mxCell id="0NaVsoEw5bRBz_IptEVe-49" value="" style="rounded=0;whiteSpace=wrap;html=1;fillColor=#fff2cc;strokeColor=#d6b656;strokeWidth=2;" vertex="1" parent="1">
          <mxGeometry x="400" y="200" width="20" height="20" as="geometry" />
        </mxCell>
        <mxCell id="0NaVsoEw5bRBz_IptEVe-50" value="" style="rounded=0;whiteSpace=wrap;html=1;fillColor=#fff2cc;strokeColor=#d6b656;strokeWidth=2;" vertex="1" parent="1">
          <mxGeometry x="340" y="220" width="20" height="20" as="geometry" />
        </mxCell>
        <mxCell id="0NaVsoEw5bRBz_IptEVe-51" value="" style="rounded=0;whiteSpace=wrap;html=1;fillColor=#fff2cc;strokeColor=#d6b656;strokeWidth=2;" vertex="1" parent="1">
          <mxGeometry x="360" y="220" width="20" height="20" as="geometry" />
        </mxCell>
        <mxCell id="0NaVsoEw5bRBz_IptEVe-52" value="" style="rounded=0;whiteSpace=wrap;html=1;fillColor=#fff2cc;strokeColor=#d6b656;strokeWidth=2;" vertex="1" parent="1">
          <mxGeometry x="380" y="220" width="20" height="20" as="geometry" />
        </mxCell>
        <mxCell id="0NaVsoEw5bRBz_IptEVe-53" value="" style="rounded=0;whiteSpace=wrap;html=1;fillColor=#fff2cc;strokeColor=#d6b656;strokeWidth=2;" vertex="1" parent="1">
          <mxGeometry x="400" y="220" width="20" height="20" as="geometry" />
        </mxCell>
        <mxCell id="0NaVsoEw5bRBz_IptEVe-55" value="" style="rounded=0;whiteSpace=wrap;html=1;fillColor=#dae8fc;strokeColor=#6c8ebf;strokeWidth=2;" vertex="1" parent="1">
          <mxGeometry x="120" y="260" width="320" height="120" as="geometry" />
        </mxCell>
        <mxCell id="0NaVsoEw5bRBz_IptEVe-56" value="" style="rounded=0;whiteSpace=wrap;html=1;fillColor=#f8cecc;strokeColor=#b85450;strokeWidth=2;" vertex="1" parent="1">
          <mxGeometry x="130" y="270" width="100" height="100" as="geometry" />
        </mxCell>
        <mxCell id="0NaVsoEw5bRBz_IptEVe-57" value="" style="rounded=0;whiteSpace=wrap;html=1;fillColor=#fff2cc;strokeColor=#d6b656;strokeWidth=2;" vertex="1" parent="1">
          <mxGeometry x="140" y="280" width="20" height="20" as="geometry" />
        </mxCell>
        <mxCell id="0NaVsoEw5bRBz_IptEVe-58" value="" style="rounded=0;whiteSpace=wrap;html=1;fillColor=#fff2cc;strokeColor=#d6b656;strokeWidth=2;" vertex="1" parent="1">
          <mxGeometry x="160" y="280" width="20" height="20" as="geometry" />
        </mxCell>
        <mxCell id="0NaVsoEw5bRBz_IptEVe-59" value="" style="rounded=0;whiteSpace=wrap;html=1;fillColor=#fff2cc;strokeColor=#d6b656;strokeWidth=2;" vertex="1" parent="1">
          <mxGeometry x="180" y="280" width="20" height="20" as="geometry" />
        </mxCell>
        <mxCell id="0NaVsoEw5bRBz_IptEVe-60" value="" style="rounded=0;whiteSpace=wrap;html=1;fillColor=#fff2cc;strokeColor=#d6b656;strokeWidth=2;" vertex="1" parent="1">
          <mxGeometry x="200" y="280" width="20" height="20" as="geometry" />
        </mxCell>
        <mxCell id="0NaVsoEw5bRBz_IptEVe-61" value="" style="rounded=0;whiteSpace=wrap;html=1;fillColor=#fff2cc;strokeColor=#d6b656;strokeWidth=2;" vertex="1" parent="1">
          <mxGeometry x="140" y="300" width="20" height="20" as="geometry" />
        </mxCell>
        <mxCell id="0NaVsoEw5bRBz_IptEVe-62" value="" style="rounded=0;whiteSpace=wrap;html=1;fillColor=#fff2cc;strokeColor=#d6b656;strokeWidth=2;" vertex="1" parent="1">
          <mxGeometry x="160" y="300" width="20" height="20" as="geometry" />
        </mxCell>
        <mxCell id="0NaVsoEw5bRBz_IptEVe-63" value="" style="rounded=0;whiteSpace=wrap;html=1;fillColor=#fff2cc;strokeColor=#d6b656;strokeWidth=2;" vertex="1" parent="1">
          <mxGeometry x="180" y="300" width="20" height="20" as="geometry" />
        </mxCell>
        <mxCell id="0NaVsoEw5bRBz_IptEVe-64" value="" style="rounded=0;whiteSpace=wrap;html=1;fillColor=#fff2cc;strokeColor=#d6b656;strokeWidth=2;" vertex="1" parent="1">
          <mxGeometry x="200" y="300" width="20" height="20" as="geometry" />
        </mxCell>
        <mxCell id="0NaVsoEw5bRBz_IptEVe-65" value="" style="rounded=0;whiteSpace=wrap;html=1;fillColor=#fff2cc;strokeColor=#d6b656;strokeWidth=2;" vertex="1" parent="1">
          <mxGeometry x="140" y="320" width="20" height="20" as="geometry" />
        </mxCell>
        <mxCell id="0NaVsoEw5bRBz_IptEVe-66" value="" style="rounded=0;whiteSpace=wrap;html=1;fillColor=#fff2cc;strokeColor=#d6b656;strokeWidth=2;" vertex="1" parent="1">
          <mxGeometry x="160" y="320" width="20" height="20" as="geometry" />
        </mxCell>
        <mxCell id="0NaVsoEw5bRBz_IptEVe-67" value="" style="rounded=0;whiteSpace=wrap;html=1;fillColor=#fff2cc;strokeColor=#d6b656;strokeWidth=2;" vertex="1" parent="1">
          <mxGeometry x="180" y="320" width="20" height="20" as="geometry" />
        </mxCell>
        <mxCell id="0NaVsoEw5bRBz_IptEVe-68" value="" style="rounded=0;whiteSpace=wrap;html=1;fillColor=#fff2cc;strokeColor=#d6b656;strokeWidth=2;" vertex="1" parent="1">
          <mxGeometry x="200" y="320" width="20" height="20" as="geometry" />
        </mxCell>
        <mxCell id="0NaVsoEw5bRBz_IptEVe-69" value="" style="rounded=0;whiteSpace=wrap;html=1;fillColor=#fff2cc;strokeColor=#d6b656;strokeWidth=2;" vertex="1" parent="1">
          <mxGeometry x="140" y="340" width="20" height="20" as="geometry" />
        </mxCell>
        <mxCell id="0NaVsoEw5bRBz_IptEVe-70" value="" style="rounded=0;whiteSpace=wrap;html=1;fillColor=#fff2cc;strokeColor=#d6b656;strokeWidth=2;" vertex="1" parent="1">
          <mxGeometry x="160" y="340" width="20" height="20" as="geometry" />
        </mxCell>
        <mxCell id="0NaVsoEw5bRBz_IptEVe-71" value="" style="rounded=0;whiteSpace=wrap;html=1;fillColor=#fff2cc;strokeColor=#d6b656;strokeWidth=2;" vertex="1" parent="1">
          <mxGeometry x="180" y="340" width="20" height="20" as="geometry" />
        </mxCell>
        <mxCell id="0NaVsoEw5bRBz_IptEVe-72" value="" style="rounded=0;whiteSpace=wrap;html=1;fillColor=#fff2cc;strokeColor=#d6b656;strokeWidth=2;" vertex="1" parent="1">
          <mxGeometry x="200" y="340" width="20" height="20" as="geometry" />
        </mxCell>
        <mxCell id="0NaVsoEw5bRBz_IptEVe-73" value="" style="rounded=0;whiteSpace=wrap;html=1;fillColor=#f8cecc;strokeColor=#b85450;strokeWidth=2;" vertex="1" parent="1">
          <mxGeometry x="230" y="270" width="100" height="100" as="geometry" />
        </mxCell>
        <mxCell id="0NaVsoEw5bRBz_IptEVe-74" value="" style="rounded=0;whiteSpace=wrap;html=1;fillColor=#fff2cc;strokeColor=#d6b656;strokeWidth=2;" vertex="1" parent="1">
          <mxGeometry x="240" y="280" width="20" height="20" as="geometry" />
        </mxCell>
        <mxCell id="0NaVsoEw5bRBz_IptEVe-75" value="" style="rounded=0;whiteSpace=wrap;html=1;fillColor=#fff2cc;strokeColor=#d6b656;strokeWidth=2;" vertex="1" parent="1">
          <mxGeometry x="260" y="280" width="20" height="20" as="geometry" />
        </mxCell>
        <mxCell id="0NaVsoEw5bRBz_IptEVe-76" value="" style="rounded=0;whiteSpace=wrap;html=1;fillColor=#fff2cc;strokeColor=#d6b656;strokeWidth=2;" vertex="1" parent="1">
          <mxGeometry x="280" y="280" width="20" height="20" as="geometry" />
        </mxCell>
        <mxCell id="0NaVsoEw5bRBz_IptEVe-77" value="" style="rounded=0;whiteSpace=wrap;html=1;fillColor=#fff2cc;strokeColor=#d6b656;strokeWidth=2;" vertex="1" parent="1">
          <mxGeometry x="300" y="280" width="20" height="20" as="geometry" />
        </mxCell>
        <mxCell id="0NaVsoEw5bRBz_IptEVe-78" value="" style="rounded=0;whiteSpace=wrap;html=1;fillColor=#fff2cc;strokeColor=#d6b656;strokeWidth=2;" vertex="1" parent="1">
          <mxGeometry x="240" y="300" width="20" height="20" as="geometry" />
        </mxCell>
        <mxCell id="0NaVsoEw5bRBz_IptEVe-79" value="" style="rounded=0;whiteSpace=wrap;html=1;fillColor=#fff2cc;strokeColor=#d6b656;strokeWidth=2;" vertex="1" parent="1">
          <mxGeometry x="260" y="300" width="20" height="20" as="geometry" />
        </mxCell>
        <mxCell id="0NaVsoEw5bRBz_IptEVe-80" value="" style="rounded=0;whiteSpace=wrap;html=1;fillColor=#fff2cc;strokeColor=#d6b656;strokeWidth=2;" vertex="1" parent="1">
          <mxGeometry x="280" y="300" width="20" height="20" as="geometry" />
        </mxCell>
        <mxCell id="0NaVsoEw5bRBz_IptEVe-81" value="" style="rounded=0;whiteSpace=wrap;html=1;fillColor=#fff2cc;strokeColor=#d6b656;strokeWidth=2;" vertex="1" parent="1">
          <mxGeometry x="300" y="300" width="20" height="20" as="geometry" />
        </mxCell>
        <mxCell id="0NaVsoEw5bRBz_IptEVe-82" value="" style="rounded=0;whiteSpace=wrap;html=1;fillColor=#fff2cc;strokeColor=#d6b656;strokeWidth=2;" vertex="1" parent="1">
          <mxGeometry x="240" y="320" width="20" height="20" as="geometry" />
        </mxCell>
        <mxCell id="0NaVsoEw5bRBz_IptEVe-83" value="" style="rounded=0;whiteSpace=wrap;html=1;fillColor=#fff2cc;strokeColor=#d6b656;strokeWidth=2;" vertex="1" parent="1">
          <mxGeometry x="260" y="320" width="20" height="20" as="geometry" />
        </mxCell>
        <mxCell id="0NaVsoEw5bRBz_IptEVe-84" value="" style="rounded=0;whiteSpace=wrap;html=1;fillColor=#fff2cc;strokeColor=#d6b656;strokeWidth=2;" vertex="1" parent="1">
          <mxGeometry x="280" y="320" width="20" height="20" as="geometry" />
        </mxCell>
        <mxCell id="0NaVsoEw5bRBz_IptEVe-85" value="" style="rounded=0;whiteSpace=wrap;html=1;fillColor=#fff2cc;strokeColor=#d6b656;strokeWidth=2;" vertex="1" parent="1">
          <mxGeometry x="300" y="320" width="20" height="20" as="geometry" />
        </mxCell>
        <mxCell id="0NaVsoEw5bRBz_IptEVe-86" value="" style="rounded=0;whiteSpace=wrap;html=1;fillColor=#fff2cc;strokeColor=#d6b656;strokeWidth=2;" vertex="1" parent="1">
          <mxGeometry x="240" y="340" width="20" height="20" as="geometry" />
        </mxCell>
        <mxCell id="0NaVsoEw5bRBz_IptEVe-87" value="" style="rounded=0;whiteSpace=wrap;html=1;fillColor=#fff2cc;strokeColor=#d6b656;strokeWidth=2;" vertex="1" parent="1">
          <mxGeometry x="260" y="340" width="20" height="20" as="geometry" />
        </mxCell>
        <mxCell id="0NaVsoEw5bRBz_IptEVe-88" value="" style="rounded=0;whiteSpace=wrap;html=1;fillColor=#fff2cc;strokeColor=#d6b656;strokeWidth=2;" vertex="1" parent="1">
          <mxGeometry x="280" y="340" width="20" height="20" as="geometry" />
        </mxCell>
        <mxCell id="0NaVsoEw5bRBz_IptEVe-89" value="" style="rounded=0;whiteSpace=wrap;html=1;fillColor=#fff2cc;strokeColor=#d6b656;strokeWidth=2;" vertex="1" parent="1">
          <mxGeometry x="300" y="340" width="20" height="20" as="geometry" />
        </mxCell>
        <mxCell id="0NaVsoEw5bRBz_IptEVe-90" value="" style="rounded=0;whiteSpace=wrap;html=1;fillColor=#f8cecc;strokeColor=#b85450;strokeWidth=2;" vertex="1" parent="1">
          <mxGeometry x="330" y="270" width="100" height="100" as="geometry" />
        </mxCell>
        <mxCell id="0NaVsoEw5bRBz_IptEVe-91" value="" style="rounded=0;whiteSpace=wrap;html=1;fillColor=#fff2cc;strokeColor=#d6b656;strokeWidth=2;" vertex="1" parent="1">
          <mxGeometry x="340" y="280" width="20" height="20" as="geometry" />
        </mxCell>
        <mxCell id="0NaVsoEw5bRBz_IptEVe-92" value="" style="rounded=0;whiteSpace=wrap;html=1;fillColor=#fff2cc;strokeColor=#d6b656;strokeWidth=2;" vertex="1" parent="1">
          <mxGeometry x="360" y="280" width="20" height="20" as="geometry" />
        </mxCell>
        <mxCell id="0NaVsoEw5bRBz_IptEVe-93" value="" style="rounded=0;whiteSpace=wrap;html=1;fillColor=#fff2cc;strokeColor=#d6b656;strokeWidth=2;" vertex="1" parent="1">
          <mxGeometry x="380" y="280" width="20" height="20" as="geometry" />
        </mxCell>
        <mxCell id="0NaVsoEw5bRBz_IptEVe-94" value="" style="rounded=0;whiteSpace=wrap;html=1;fillColor=#fff2cc;strokeColor=#d6b656;strokeWidth=2;" vertex="1" parent="1">
          <mxGeometry x="400" y="280" width="20" height="20" as="geometry" />
        </mxCell>
        <mxCell id="0NaVsoEw5bRBz_IptEVe-95" value="" style="rounded=0;whiteSpace=wrap;html=1;fillColor=#fff2cc;strokeColor=#d6b656;strokeWidth=2;" vertex="1" parent="1">
          <mxGeometry x="340" y="300" width="20" height="20" as="geometry" />
        </mxCell>
        <mxCell id="0NaVsoEw5bRBz_IptEVe-96" value="" style="rounded=0;whiteSpace=wrap;html=1;fillColor=#fff2cc;strokeColor=#d6b656;strokeWidth=2;" vertex="1" parent="1">
          <mxGeometry x="360" y="300" width="20" height="20" as="geometry" />
        </mxCell>
        <mxCell id="0NaVsoEw5bRBz_IptEVe-97" value="" style="rounded=0;whiteSpace=wrap;html=1;fillColor=#fff2cc;strokeColor=#d6b656;strokeWidth=2;" vertex="1" parent="1">
          <mxGeometry x="380" y="300" width="20" height="20" as="geometry" />
        </mxCell>
        <mxCell id="0NaVsoEw5bRBz_IptEVe-98" value="" style="rounded=0;whiteSpace=wrap;html=1;fillColor=#fff2cc;strokeColor=#d6b656;strokeWidth=2;" vertex="1" parent="1">
          <mxGeometry x="400" y="300" width="20" height="20" as="geometry" />
        </mxCell>
        <mxCell id="0NaVsoEw5bRBz_IptEVe-99" value="" style="rounded=0;whiteSpace=wrap;html=1;fillColor=#fff2cc;strokeColor=#d6b656;strokeWidth=2;" vertex="1" parent="1">
          <mxGeometry x="340" y="320" width="20" height="20" as="geometry" />
        </mxCell>
        <mxCell id="0NaVsoEw5bRBz_IptEVe-100" value="" style="rounded=0;whiteSpace=wrap;html=1;fillColor=#fff2cc;strokeColor=#d6b656;strokeWidth=2;" vertex="1" parent="1">
          <mxGeometry x="360" y="320" width="20" height="20" as="geometry" />
        </mxCell>
        <mxCell id="0NaVsoEw5bRBz_IptEVe-101" value="" style="rounded=0;whiteSpace=wrap;html=1;fillColor=#fff2cc;strokeColor=#d6b656;strokeWidth=2;" vertex="1" parent="1">
          <mxGeometry x="380" y="320" width="20" height="20" as="geometry" />
        </mxCell>
        <mxCell id="0NaVsoEw5bRBz_IptEVe-102" value="" style="rounded=0;whiteSpace=wrap;html=1;fillColor=#fff2cc;strokeColor=#d6b656;strokeWidth=2;" vertex="1" parent="1">
          <mxGeometry x="400" y="320" width="20" height="20" as="geometry" />
        </mxCell>
        <mxCell id="0NaVsoEw5bRBz_IptEVe-103" value="" style="rounded=0;whiteSpace=wrap;html=1;fillColor=#fff2cc;strokeColor=#d6b656;strokeWidth=2;" vertex="1" parent="1">
          <mxGeometry x="340" y="340" width="20" height="20" as="geometry" />
        </mxCell>
        <mxCell id="0NaVsoEw5bRBz_IptEVe-104" value="" style="rounded=0;whiteSpace=wrap;html=1;fillColor=#fff2cc;strokeColor=#d6b656;strokeWidth=2;" vertex="1" parent="1">
          <mxGeometry x="360" y="340" width="20" height="20" as="geometry" />
        </mxCell>
        <mxCell id="0NaVsoEw5bRBz_IptEVe-105" value="" style="rounded=0;whiteSpace=wrap;html=1;fillColor=#fff2cc;strokeColor=#d6b656;strokeWidth=2;" vertex="1" parent="1">
          <mxGeometry x="380" y="340" width="20" height="20" as="geometry" />
        </mxCell>
        <mxCell id="0NaVsoEw5bRBz_IptEVe-106" value="" style="rounded=0;whiteSpace=wrap;html=1;fillColor=#fff2cc;strokeColor=#d6b656;strokeWidth=2;" vertex="1" parent="1">
          <mxGeometry x="400" y="340" width="20" height="20" as="geometry" />
        </mxCell>
        <mxCell id="0NaVsoEw5bRBz_IptEVe-107" value="" style="rounded=0;whiteSpace=wrap;html=1;fillColor=#dae8fc;strokeColor=#6c8ebf;strokeWidth=2;" vertex="1" parent="1">
          <mxGeometry x="120" y="380" width="320" height="120" as="geometry" />
        </mxCell>
        <mxCell id="0NaVsoEw5bRBz_IptEVe-108" value="" style="rounded=0;whiteSpace=wrap;html=1;fillColor=#f8cecc;strokeColor=#b85450;strokeWidth=2;" vertex="1" parent="1">
          <mxGeometry x="130" y="390" width="100" height="100" as="geometry" />
        </mxCell>
        <mxCell id="0NaVsoEw5bRBz_IptEVe-109" value="" style="rounded=0;whiteSpace=wrap;html=1;fillColor=#fff2cc;strokeColor=#d6b656;strokeWidth=2;" vertex="1" parent="1">
          <mxGeometry x="140" y="400" width="20" height="20" as="geometry" />
        </mxCell>
        <mxCell id="0NaVsoEw5bRBz_IptEVe-110" value="" style="rounded=0;whiteSpace=wrap;html=1;fillColor=#fff2cc;strokeColor=#d6b656;strokeWidth=2;" vertex="1" parent="1">
          <mxGeometry x="160" y="400" width="20" height="20" as="geometry" />
        </mxCell>
        <mxCell id="0NaVsoEw5bRBz_IptEVe-111" value="" style="rounded=0;whiteSpace=wrap;html=1;fillColor=#fff2cc;strokeColor=#d6b656;strokeWidth=2;" vertex="1" parent="1">
          <mxGeometry x="180" y="400" width="20" height="20" as="geometry" />
        </mxCell>
        <mxCell id="0NaVsoEw5bRBz_IptEVe-112" value="" style="rounded=0;whiteSpace=wrap;html=1;fillColor=#fff2cc;strokeColor=#d6b656;strokeWidth=2;" vertex="1" parent="1">
          <mxGeometry x="200" y="400" width="20" height="20" as="geometry" />
        </mxCell>
        <mxCell id="0NaVsoEw5bRBz_IptEVe-113" value="" style="rounded=0;whiteSpace=wrap;html=1;fillColor=#fff2cc;strokeColor=#d6b656;strokeWidth=2;" vertex="1" parent="1">
          <mxGeometry x="140" y="420" width="20" height="20" as="geometry" />
        </mxCell>
        <mxCell id="0NaVsoEw5bRBz_IptEVe-114" value="" style="rounded=0;whiteSpace=wrap;html=1;fillColor=#fff2cc;strokeColor=#d6b656;strokeWidth=2;" vertex="1" parent="1">
          <mxGeometry x="160" y="420" width="20" height="20" as="geometry" />
        </mxCell>
        <mxCell id="0NaVsoEw5bRBz_IptEVe-115" value="" style="rounded=0;whiteSpace=wrap;html=1;fillColor=#fff2cc;strokeColor=#d6b656;strokeWidth=2;" vertex="1" parent="1">
          <mxGeometry x="180" y="420" width="20" height="20" as="geometry" />
        </mxCell>
        <mxCell id="0NaVsoEw5bRBz_IptEVe-116" value="" style="rounded=0;whiteSpace=wrap;html=1;fillColor=#fff2cc;strokeColor=#d6b656;strokeWidth=2;" vertex="1" parent="1">
          <mxGeometry x="200" y="420" width="20" height="20" as="geometry" />
        </mxCell>
        <mxCell id="0NaVsoEw5bRBz_IptEVe-117" value="" style="rounded=0;whiteSpace=wrap;html=1;fillColor=#fff2cc;strokeColor=#d6b656;strokeWidth=2;" vertex="1" parent="1">
          <mxGeometry x="140" y="440" width="20" height="20" as="geometry" />
        </mxCell>
        <mxCell id="0NaVsoEw5bRBz_IptEVe-118" value="" style="rounded=0;whiteSpace=wrap;html=1;fillColor=#fff2cc;strokeColor=#d6b656;strokeWidth=2;" vertex="1" parent="1">
          <mxGeometry x="160" y="440" width="20" height="20" as="geometry" />
        </mxCell>
        <mxCell id="0NaVsoEw5bRBz_IptEVe-119" value="" style="rounded=0;whiteSpace=wrap;html=1;fillColor=#fff2cc;strokeColor=#d6b656;strokeWidth=2;" vertex="1" parent="1">
          <mxGeometry x="180" y="440" width="20" height="20" as="geometry" />
        </mxCell>
        <mxCell id="0NaVsoEw5bRBz_IptEVe-120" value="" style="rounded=0;whiteSpace=wrap;html=1;fillColor=#fff2cc;strokeColor=#d6b656;strokeWidth=2;" vertex="1" parent="1">
          <mxGeometry x="200" y="440" width="20" height="20" as="geometry" />
        </mxCell>
        <mxCell id="0NaVsoEw5bRBz_IptEVe-121" value="" style="rounded=0;whiteSpace=wrap;html=1;fillColor=#fff2cc;strokeColor=#d6b656;strokeWidth=2;" vertex="1" parent="1">
          <mxGeometry x="140" y="460" width="20" height="20" as="geometry" />
        </mxCell>
        <mxCell id="0NaVsoEw5bRBz_IptEVe-122" value="" style="rounded=0;whiteSpace=wrap;html=1;fillColor=#fff2cc;strokeColor=#d6b656;strokeWidth=2;" vertex="1" parent="1">
          <mxGeometry x="160" y="460" width="20" height="20" as="geometry" />
        </mxCell>
        <mxCell id="0NaVsoEw5bRBz_IptEVe-123" value="" style="rounded=0;whiteSpace=wrap;html=1;fillColor=#fff2cc;strokeColor=#d6b656;strokeWidth=2;" vertex="1" parent="1">
          <mxGeometry x="180" y="460" width="20" height="20" as="geometry" />
        </mxCell>
        <mxCell id="0NaVsoEw5bRBz_IptEVe-124" value="" style="rounded=0;whiteSpace=wrap;html=1;fillColor=#fff2cc;strokeColor=#d6b656;strokeWidth=2;" vertex="1" parent="1">
          <mxGeometry x="200" y="460" width="20" height="20" as="geometry" />
        </mxCell>
        <mxCell id="0NaVsoEw5bRBz_IptEVe-125" value="" style="rounded=0;whiteSpace=wrap;html=1;fillColor=#f8cecc;strokeColor=#b85450;strokeWidth=2;" vertex="1" parent="1">
          <mxGeometry x="230" y="390" width="100" height="100" as="geometry" />
        </mxCell>
        <mxCell id="0NaVsoEw5bRBz_IptEVe-126" value="" style="rounded=0;whiteSpace=wrap;html=1;fillColor=#fff2cc;strokeColor=#d6b656;strokeWidth=2;" vertex="1" parent="1">
          <mxGeometry x="240" y="400" width="20" height="20" as="geometry" />
        </mxCell>
        <mxCell id="0NaVsoEw5bRBz_IptEVe-127" value="" style="rounded=0;whiteSpace=wrap;html=1;fillColor=#fff2cc;strokeColor=#d6b656;strokeWidth=2;" vertex="1" parent="1">
          <mxGeometry x="260" y="400" width="20" height="20" as="geometry" />
        </mxCell>
        <mxCell id="0NaVsoEw5bRBz_IptEVe-128" value="" style="rounded=0;whiteSpace=wrap;html=1;fillColor=#fff2cc;strokeColor=#d6b656;strokeWidth=2;" vertex="1" parent="1">
          <mxGeometry x="280" y="400" width="20" height="20" as="geometry" />
        </mxCell>
        <mxCell id="0NaVsoEw5bRBz_IptEVe-129" value="" style="rounded=0;whiteSpace=wrap;html=1;fillColor=#fff2cc;strokeColor=#d6b656;strokeWidth=2;" vertex="1" parent="1">
          <mxGeometry x="300" y="400" width="20" height="20" as="geometry" />
        </mxCell>
        <mxCell id="0NaVsoEw5bRBz_IptEVe-130" value="" style="rounded=0;whiteSpace=wrap;html=1;fillColor=#fff2cc;strokeColor=#d6b656;strokeWidth=2;" vertex="1" parent="1">
          <mxGeometry x="240" y="420" width="20" height="20" as="geometry" />
        </mxCell>
        <mxCell id="0NaVsoEw5bRBz_IptEVe-131" value="" style="rounded=0;whiteSpace=wrap;html=1;fillColor=#fff2cc;strokeColor=#d6b656;strokeWidth=2;" vertex="1" parent="1">
          <mxGeometry x="260" y="420" width="20" height="20" as="geometry" />
        </mxCell>
        <mxCell id="0NaVsoEw5bRBz_IptEVe-132" value="" style="rounded=0;whiteSpace=wrap;html=1;fillColor=#fff2cc;strokeColor=#d6b656;strokeWidth=2;" vertex="1" parent="1">
          <mxGeometry x="280" y="420" width="20" height="20" as="geometry" />
        </mxCell>
        <mxCell id="0NaVsoEw5bRBz_IptEVe-133" value="" style="rounded=0;whiteSpace=wrap;html=1;fillColor=#fff2cc;strokeColor=#d6b656;strokeWidth=2;" vertex="1" parent="1">
          <mxGeometry x="300" y="420" width="20" height="20" as="geometry" />
        </mxCell>
        <mxCell id="0NaVsoEw5bRBz_IptEVe-134" value="" style="rounded=0;whiteSpace=wrap;html=1;fillColor=#fff2cc;strokeColor=#d6b656;strokeWidth=2;" vertex="1" parent="1">
          <mxGeometry x="240" y="440" width="20" height="20" as="geometry" />
        </mxCell>
        <mxCell id="0NaVsoEw5bRBz_IptEVe-135" value="" style="rounded=0;whiteSpace=wrap;html=1;fillColor=#fff2cc;strokeColor=#d6b656;strokeWidth=2;" vertex="1" parent="1">
          <mxGeometry x="260" y="440" width="20" height="20" as="geometry" />
        </mxCell>
        <mxCell id="0NaVsoEw5bRBz_IptEVe-136" value="" style="rounded=0;whiteSpace=wrap;html=1;fillColor=#fff2cc;strokeColor=#d6b656;strokeWidth=2;" vertex="1" parent="1">
          <mxGeometry x="280" y="440" width="20" height="20" as="geometry" />
        </mxCell>
        <mxCell id="0NaVsoEw5bRBz_IptEVe-137" value="" style="rounded=0;whiteSpace=wrap;html=1;fillColor=#fff2cc;strokeColor=#d6b656;strokeWidth=2;" vertex="1" parent="1">
          <mxGeometry x="300" y="440" width="20" height="20" as="geometry" />
        </mxCell>
        <mxCell id="0NaVsoEw5bRBz_IptEVe-138" value="" style="rounded=0;whiteSpace=wrap;html=1;fillColor=#fff2cc;strokeColor=#d6b656;strokeWidth=2;" vertex="1" parent="1">
          <mxGeometry x="240" y="460" width="20" height="20" as="geometry" />
        </mxCell>
        <mxCell id="0NaVsoEw5bRBz_IptEVe-139" value="" style="rounded=0;whiteSpace=wrap;html=1;fillColor=#fff2cc;strokeColor=#d6b656;strokeWidth=2;" vertex="1" parent="1">
          <mxGeometry x="260" y="460" width="20" height="20" as="geometry" />
        </mxCell>
        <mxCell id="0NaVsoEw5bRBz_IptEVe-140" value="" style="rounded=0;whiteSpace=wrap;html=1;fillColor=#fff2cc;strokeColor=#d6b656;strokeWidth=2;" vertex="1" parent="1">
          <mxGeometry x="280" y="460" width="20" height="20" as="geometry" />
        </mxCell>
        <mxCell id="0NaVsoEw5bRBz_IptEVe-141" value="" style="rounded=0;whiteSpace=wrap;html=1;fillColor=#fff2cc;strokeColor=#d6b656;strokeWidth=2;" vertex="1" parent="1">
          <mxGeometry x="300" y="460" width="20" height="20" as="geometry" />
        </mxCell>
        <mxCell id="0NaVsoEw5bRBz_IptEVe-142" value="" style="rounded=0;whiteSpace=wrap;html=1;fillColor=#f8cecc;strokeColor=#b85450;strokeWidth=2;" vertex="1" parent="1">
          <mxGeometry x="330" y="390" width="100" height="100" as="geometry" />
        </mxCell>
        <mxCell id="0NaVsoEw5bRBz_IptEVe-143" value="" style="rounded=0;whiteSpace=wrap;html=1;fillColor=#fff2cc;strokeColor=#d6b656;strokeWidth=2;" vertex="1" parent="1">
          <mxGeometry x="340" y="400" width="20" height="20" as="geometry" />
        </mxCell>
        <mxCell id="0NaVsoEw5bRBz_IptEVe-144" value="" style="rounded=0;whiteSpace=wrap;html=1;fillColor=#fff2cc;strokeColor=#d6b656;strokeWidth=2;" vertex="1" parent="1">
          <mxGeometry x="360" y="400" width="20" height="20" as="geometry" />
        </mxCell>
        <mxCell id="0NaVsoEw5bRBz_IptEVe-145" value="" style="rounded=0;whiteSpace=wrap;html=1;fillColor=#fff2cc;strokeColor=#d6b656;strokeWidth=2;" vertex="1" parent="1">
          <mxGeometry x="380" y="400" width="20" height="20" as="geometry" />
        </mxCell>
        <mxCell id="0NaVsoEw5bRBz_IptEVe-146" value="" style="rounded=0;whiteSpace=wrap;html=1;fillColor=#fff2cc;strokeColor=#d6b656;strokeWidth=2;" vertex="1" parent="1">
          <mxGeometry x="400" y="400" width="20" height="20" as="geometry" />
        </mxCell>
        <mxCell id="0NaVsoEw5bRBz_IptEVe-147" value="" style="rounded=0;whiteSpace=wrap;html=1;fillColor=#fff2cc;strokeColor=#d6b656;strokeWidth=2;" vertex="1" parent="1">
          <mxGeometry x="340" y="420" width="20" height="20" as="geometry" />
        </mxCell>
        <mxCell id="0NaVsoEw5bRBz_IptEVe-148" value="" style="rounded=0;whiteSpace=wrap;html=1;fillColor=#fff2cc;strokeColor=#d6b656;strokeWidth=2;" vertex="1" parent="1">
          <mxGeometry x="360" y="420" width="20" height="20" as="geometry" />
        </mxCell>
        <mxCell id="0NaVsoEw5bRBz_IptEVe-149" value="" style="rounded=0;whiteSpace=wrap;html=1;fillColor=#fff2cc;strokeColor=#d6b656;strokeWidth=2;" vertex="1" parent="1">
          <mxGeometry x="380" y="420" width="20" height="20" as="geometry" />
        </mxCell>
        <mxCell id="0NaVsoEw5bRBz_IptEVe-150" value="" style="rounded=0;whiteSpace=wrap;html=1;fillColor=#fff2cc;strokeColor=#d6b656;strokeWidth=2;" vertex="1" parent="1">
          <mxGeometry x="400" y="420" width="20" height="20" as="geometry" />
        </mxCell>
        <mxCell id="0NaVsoEw5bRBz_IptEVe-151" value="" style="rounded=0;whiteSpace=wrap;html=1;fillColor=#fff2cc;strokeColor=#d6b656;strokeWidth=2;" vertex="1" parent="1">
          <mxGeometry x="340" y="440" width="20" height="20" as="geometry" />
        </mxCell>
        <mxCell id="0NaVsoEw5bRBz_IptEVe-152" value="" style="rounded=0;whiteSpace=wrap;html=1;fillColor=#fff2cc;strokeColor=#d6b656;strokeWidth=2;" vertex="1" parent="1">
          <mxGeometry x="360" y="440" width="20" height="20" as="geometry" />
        </mxCell>
        <mxCell id="0NaVsoEw5bRBz_IptEVe-153" value="" style="rounded=0;whiteSpace=wrap;html=1;fillColor=#fff2cc;strokeColor=#d6b656;strokeWidth=2;" vertex="1" parent="1">
          <mxGeometry x="380" y="440" width="20" height="20" as="geometry" />
        </mxCell>
        <mxCell id="0NaVsoEw5bRBz_IptEVe-154" value="" style="rounded=0;whiteSpace=wrap;html=1;fillColor=#fff2cc;strokeColor=#d6b656;strokeWidth=2;" vertex="1" parent="1">
          <mxGeometry x="400" y="440" width="20" height="20" as="geometry" />
        </mxCell>
        <mxCell id="0NaVsoEw5bRBz_IptEVe-155" value="" style="rounded=0;whiteSpace=wrap;html=1;fillColor=#fff2cc;strokeColor=#d6b656;strokeWidth=2;" vertex="1" parent="1">
          <mxGeometry x="340" y="460" width="20" height="20" as="geometry" />
        </mxCell>
        <mxCell id="0NaVsoEw5bRBz_IptEVe-156" value="" style="rounded=0;whiteSpace=wrap;html=1;fillColor=#fff2cc;strokeColor=#d6b656;strokeWidth=2;" vertex="1" parent="1">
          <mxGeometry x="360" y="460" width="20" height="20" as="geometry" />
        </mxCell>
        <mxCell id="0NaVsoEw5bRBz_IptEVe-157" value="" style="rounded=0;whiteSpace=wrap;html=1;fillColor=#fff2cc;strokeColor=#d6b656;strokeWidth=2;" vertex="1" parent="1">
          <mxGeometry x="380" y="460" width="20" height="20" as="geometry" />
        </mxCell>
        <mxCell id="0NaVsoEw5bRBz_IptEVe-158" value="" style="rounded=0;whiteSpace=wrap;html=1;fillColor=#fff2cc;strokeColor=#d6b656;strokeWidth=2;" vertex="1" parent="1">
          <mxGeometry x="400" y="460" width="20" height="20" as="geometry" />
        </mxCell>
        <mxCell id="0NaVsoEw5bRBz_IptEVe-159" value="" style="rounded=0;whiteSpace=wrap;html=1;fillColor=#dae8fc;strokeColor=#6c8ebf;strokeWidth=2;" vertex="1" parent="1">
          <mxGeometry x="120" y="500" width="320" height="120" as="geometry" />
        </mxCell>
        <mxCell id="0NaVsoEw5bRBz_IptEVe-160" value="" style="rounded=0;whiteSpace=wrap;html=1;fillColor=#f8cecc;strokeColor=#b85450;strokeWidth=2;" vertex="1" parent="1">
          <mxGeometry x="130" y="510" width="100" height="100" as="geometry" />
        </mxCell>
        <mxCell id="0NaVsoEw5bRBz_IptEVe-161" value="" style="rounded=0;whiteSpace=wrap;html=1;fillColor=#fff2cc;strokeColor=#d6b656;strokeWidth=2;" vertex="1" parent="1">
          <mxGeometry x="140" y="520" width="20" height="20" as="geometry" />
        </mxCell>
        <mxCell id="0NaVsoEw5bRBz_IptEVe-162" value="" style="rounded=0;whiteSpace=wrap;html=1;fillColor=#fff2cc;strokeColor=#d6b656;strokeWidth=2;" vertex="1" parent="1">
          <mxGeometry x="160" y="520" width="20" height="20" as="geometry" />
        </mxCell>
        <mxCell id="0NaVsoEw5bRBz_IptEVe-163" value="" style="rounded=0;whiteSpace=wrap;html=1;fillColor=#fff2cc;strokeColor=#d6b656;strokeWidth=2;" vertex="1" parent="1">
          <mxGeometry x="180" y="520" width="20" height="20" as="geometry" />
        </mxCell>
        <mxCell id="0NaVsoEw5bRBz_IptEVe-164" value="" style="rounded=0;whiteSpace=wrap;html=1;fillColor=#fff2cc;strokeColor=#d6b656;strokeWidth=2;" vertex="1" parent="1">
          <mxGeometry x="200" y="520" width="20" height="20" as="geometry" />
        </mxCell>
        <mxCell id="0NaVsoEw5bRBz_IptEVe-165" value="" style="rounded=0;whiteSpace=wrap;html=1;fillColor=#fff2cc;strokeColor=#d6b656;strokeWidth=2;" vertex="1" parent="1">
          <mxGeometry x="140" y="540" width="20" height="20" as="geometry" />
        </mxCell>
        <mxCell id="0NaVsoEw5bRBz_IptEVe-166" value="" style="rounded=0;whiteSpace=wrap;html=1;fillColor=#fff2cc;strokeColor=#d6b656;strokeWidth=2;" vertex="1" parent="1">
          <mxGeometry x="160" y="540" width="20" height="20" as="geometry" />
        </mxCell>
        <mxCell id="0NaVsoEw5bRBz_IptEVe-167" value="" style="rounded=0;whiteSpace=wrap;html=1;fillColor=#fff2cc;strokeColor=#d6b656;strokeWidth=2;" vertex="1" parent="1">
          <mxGeometry x="180" y="540" width="20" height="20" as="geometry" />
        </mxCell>
        <mxCell id="0NaVsoEw5bRBz_IptEVe-168" value="" style="rounded=0;whiteSpace=wrap;html=1;fillColor=#fff2cc;strokeColor=#d6b656;strokeWidth=2;" vertex="1" parent="1">
          <mxGeometry x="200" y="540" width="20" height="20" as="geometry" />
        </mxCell>
        <mxCell id="0NaVsoEw5bRBz_IptEVe-169" value="" style="rounded=0;whiteSpace=wrap;html=1;fillColor=#fff2cc;strokeColor=#d6b656;strokeWidth=2;" vertex="1" parent="1">
          <mxGeometry x="140" y="560" width="20" height="20" as="geometry" />
        </mxCell>
        <mxCell id="0NaVsoEw5bRBz_IptEVe-170" value="" style="rounded=0;whiteSpace=wrap;html=1;fillColor=#fff2cc;strokeColor=#d6b656;strokeWidth=2;" vertex="1" parent="1">
          <mxGeometry x="160" y="560" width="20" height="20" as="geometry" />
        </mxCell>
        <mxCell id="0NaVsoEw5bRBz_IptEVe-171" value="" style="rounded=0;whiteSpace=wrap;html=1;fillColor=#fff2cc;strokeColor=#d6b656;strokeWidth=2;" vertex="1" parent="1">
          <mxGeometry x="180" y="560" width="20" height="20" as="geometry" />
        </mxCell>
        <mxCell id="0NaVsoEw5bRBz_IptEVe-172" value="" style="rounded=0;whiteSpace=wrap;html=1;fillColor=#fff2cc;strokeColor=#d6b656;strokeWidth=2;" vertex="1" parent="1">
          <mxGeometry x="200" y="560" width="20" height="20" as="geometry" />
        </mxCell>
        <mxCell id="0NaVsoEw5bRBz_IptEVe-173" value="" style="rounded=0;whiteSpace=wrap;html=1;fillColor=#fff2cc;strokeColor=#d6b656;strokeWidth=2;" vertex="1" parent="1">
          <mxGeometry x="140" y="580" width="20" height="20" as="geometry" />
        </mxCell>
        <mxCell id="0NaVsoEw5bRBz_IptEVe-174" value="" style="rounded=0;whiteSpace=wrap;html=1;fillColor=#fff2cc;strokeColor=#d6b656;strokeWidth=2;" vertex="1" parent="1">
          <mxGeometry x="160" y="580" width="20" height="20" as="geometry" />
        </mxCell>
        <mxCell id="0NaVsoEw5bRBz_IptEVe-175" value="" style="rounded=0;whiteSpace=wrap;html=1;fillColor=#fff2cc;strokeColor=#d6b656;strokeWidth=2;" vertex="1" parent="1">
          <mxGeometry x="180" y="580" width="20" height="20" as="geometry" />
        </mxCell>
        <mxCell id="0NaVsoEw5bRBz_IptEVe-176" value="" style="rounded=0;whiteSpace=wrap;html=1;fillColor=#fff2cc;strokeColor=#d6b656;strokeWidth=2;" vertex="1" parent="1">
          <mxGeometry x="200" y="580" width="20" height="20" as="geometry" />
        </mxCell>
        <mxCell id="0NaVsoEw5bRBz_IptEVe-177" value="" style="rounded=0;whiteSpace=wrap;html=1;fillColor=#f8cecc;strokeColor=#b85450;strokeWidth=2;" vertex="1" parent="1">
          <mxGeometry x="230" y="510" width="100" height="100" as="geometry" />
        </mxCell>
        <mxCell id="0NaVsoEw5bRBz_IptEVe-178" value="" style="rounded=0;whiteSpace=wrap;html=1;fillColor=#fff2cc;strokeColor=#d6b656;strokeWidth=2;" vertex="1" parent="1">
          <mxGeometry x="240" y="520" width="20" height="20" as="geometry" />
        </mxCell>
        <mxCell id="0NaVsoEw5bRBz_IptEVe-179" value="" style="rounded=0;whiteSpace=wrap;html=1;fillColor=#fff2cc;strokeColor=#d6b656;strokeWidth=2;" vertex="1" parent="1">
          <mxGeometry x="260" y="520" width="20" height="20" as="geometry" />
        </mxCell>
        <mxCell id="0NaVsoEw5bRBz_IptEVe-180" value="" style="rounded=0;whiteSpace=wrap;html=1;fillColor=#fff2cc;strokeColor=#d6b656;strokeWidth=2;" vertex="1" parent="1">
          <mxGeometry x="280" y="520" width="20" height="20" as="geometry" />
        </mxCell>
        <mxCell id="0NaVsoEw5bRBz_IptEVe-181" value="" style="rounded=0;whiteSpace=wrap;html=1;fillColor=#fff2cc;strokeColor=#d6b656;strokeWidth=2;" vertex="1" parent="1">
          <mxGeometry x="300" y="520" width="20" height="20" as="geometry" />
        </mxCell>
        <mxCell id="0NaVsoEw5bRBz_IptEVe-182" value="" style="rounded=0;whiteSpace=wrap;html=1;fillColor=#fff2cc;strokeColor=#d6b656;strokeWidth=2;" vertex="1" parent="1">
          <mxGeometry x="240" y="540" width="20" height="20" as="geometry" />
        </mxCell>
        <mxCell id="0NaVsoEw5bRBz_IptEVe-183" value="" style="rounded=0;whiteSpace=wrap;html=1;fillColor=#fff2cc;strokeColor=#d6b656;strokeWidth=2;" vertex="1" parent="1">
          <mxGeometry x="260" y="540" width="20" height="20" as="geometry" />
        </mxCell>
        <mxCell id="0NaVsoEw5bRBz_IptEVe-184" value="" style="rounded=0;whiteSpace=wrap;html=1;fillColor=#fff2cc;strokeColor=#d6b656;strokeWidth=2;" vertex="1" parent="1">
          <mxGeometry x="280" y="540" width="20" height="20" as="geometry" />
        </mxCell>
        <mxCell id="0NaVsoEw5bRBz_IptEVe-185" value="" style="rounded=0;whiteSpace=wrap;html=1;fillColor=#fff2cc;strokeColor=#d6b656;strokeWidth=2;" vertex="1" parent="1">
          <mxGeometry x="300" y="540" width="20" height="20" as="geometry" />
        </mxCell>
        <mxCell id="0NaVsoEw5bRBz_IptEVe-186" value="" style="rounded=0;whiteSpace=wrap;html=1;fillColor=#fff2cc;strokeColor=#d6b656;strokeWidth=2;" vertex="1" parent="1">
          <mxGeometry x="240" y="560" width="20" height="20" as="geometry" />
        </mxCell>
        <mxCell id="0NaVsoEw5bRBz_IptEVe-187" value="" style="rounded=0;whiteSpace=wrap;html=1;fillColor=#fff2cc;strokeColor=#d6b656;strokeWidth=2;" vertex="1" parent="1">
          <mxGeometry x="260" y="560" width="20" height="20" as="geometry" />
        </mxCell>
        <mxCell id="0NaVsoEw5bRBz_IptEVe-188" value="" style="rounded=0;whiteSpace=wrap;html=1;fillColor=#fff2cc;strokeColor=#d6b656;strokeWidth=2;" vertex="1" parent="1">
          <mxGeometry x="280" y="560" width="20" height="20" as="geometry" />
        </mxCell>
        <mxCell id="0NaVsoEw5bRBz_IptEVe-189" value="" style="rounded=0;whiteSpace=wrap;html=1;fillColor=#fff2cc;strokeColor=#d6b656;strokeWidth=2;" vertex="1" parent="1">
          <mxGeometry x="300" y="560" width="20" height="20" as="geometry" />
        </mxCell>
        <mxCell id="0NaVsoEw5bRBz_IptEVe-190" value="" style="rounded=0;whiteSpace=wrap;html=1;fillColor=#fff2cc;strokeColor=#d6b656;strokeWidth=2;" vertex="1" parent="1">
          <mxGeometry x="240" y="580" width="20" height="20" as="geometry" />
        </mxCell>
        <mxCell id="0NaVsoEw5bRBz_IptEVe-191" value="" style="rounded=0;whiteSpace=wrap;html=1;fillColor=#fff2cc;strokeColor=#d6b656;strokeWidth=2;" vertex="1" parent="1">
          <mxGeometry x="260" y="580" width="20" height="20" as="geometry" />
        </mxCell>
        <mxCell id="0NaVsoEw5bRBz_IptEVe-192" value="" style="rounded=0;whiteSpace=wrap;html=1;fillColor=#fff2cc;strokeColor=#d6b656;strokeWidth=2;" vertex="1" parent="1">
          <mxGeometry x="280" y="580" width="20" height="20" as="geometry" />
        </mxCell>
        <mxCell id="0NaVsoEw5bRBz_IptEVe-193" value="" style="rounded=0;whiteSpace=wrap;html=1;fillColor=#fff2cc;strokeColor=#d6b656;strokeWidth=2;" vertex="1" parent="1">
          <mxGeometry x="300" y="580" width="20" height="20" as="geometry" />
        </mxCell>
        <mxCell id="0NaVsoEw5bRBz_IptEVe-194" value="" style="rounded=0;whiteSpace=wrap;html=1;fillColor=#f8cecc;strokeColor=#b85450;strokeWidth=2;" vertex="1" parent="1">
          <mxGeometry x="330" y="510" width="100" height="100" as="geometry" />
        </mxCell>
        <mxCell id="0NaVsoEw5bRBz_IptEVe-195" value="" style="rounded=0;whiteSpace=wrap;html=1;fillColor=#fff2cc;strokeColor=#d6b656;strokeWidth=2;" vertex="1" parent="1">
          <mxGeometry x="340" y="520" width="20" height="20" as="geometry" />
        </mxCell>
        <mxCell id="0NaVsoEw5bRBz_IptEVe-196" value="" style="rounded=0;whiteSpace=wrap;html=1;fillColor=#fff2cc;strokeColor=#d6b656;strokeWidth=2;" vertex="1" parent="1">
          <mxGeometry x="360" y="520" width="20" height="20" as="geometry" />
        </mxCell>
        <mxCell id="0NaVsoEw5bRBz_IptEVe-197" value="" style="rounded=0;whiteSpace=wrap;html=1;fillColor=#fff2cc;strokeColor=#d6b656;strokeWidth=2;" vertex="1" parent="1">
          <mxGeometry x="380" y="520" width="20" height="20" as="geometry" />
        </mxCell>
        <mxCell id="0NaVsoEw5bRBz_IptEVe-198" value="" style="rounded=0;whiteSpace=wrap;html=1;fillColor=#fff2cc;strokeColor=#d6b656;strokeWidth=2;" vertex="1" parent="1">
          <mxGeometry x="400" y="520" width="20" height="20" as="geometry" />
        </mxCell>
        <mxCell id="0NaVsoEw5bRBz_IptEVe-199" value="" style="rounded=0;whiteSpace=wrap;html=1;fillColor=#fff2cc;strokeColor=#d6b656;strokeWidth=2;" vertex="1" parent="1">
          <mxGeometry x="340" y="540" width="20" height="20" as="geometry" />
        </mxCell>
        <mxCell id="0NaVsoEw5bRBz_IptEVe-200" value="" style="rounded=0;whiteSpace=wrap;html=1;fillColor=#fff2cc;strokeColor=#d6b656;strokeWidth=2;" vertex="1" parent="1">
          <mxGeometry x="360" y="540" width="20" height="20" as="geometry" />
        </mxCell>
        <mxCell id="0NaVsoEw5bRBz_IptEVe-201" value="" style="rounded=0;whiteSpace=wrap;html=1;fillColor=#fff2cc;strokeColor=#d6b656;strokeWidth=2;" vertex="1" parent="1">
          <mxGeometry x="380" y="540" width="20" height="20" as="geometry" />
        </mxCell>
        <mxCell id="0NaVsoEw5bRBz_IptEVe-202" value="" style="rounded=0;whiteSpace=wrap;html=1;fillColor=#fff2cc;strokeColor=#d6b656;strokeWidth=2;" vertex="1" parent="1">
          <mxGeometry x="400" y="540" width="20" height="20" as="geometry" />
        </mxCell>
        <mxCell id="0NaVsoEw5bRBz_IptEVe-203" value="" style="rounded=0;whiteSpace=wrap;html=1;fillColor=#fff2cc;strokeColor=#d6b656;strokeWidth=2;" vertex="1" parent="1">
          <mxGeometry x="340" y="560" width="20" height="20" as="geometry" />
        </mxCell>
        <mxCell id="0NaVsoEw5bRBz_IptEVe-204" value="" style="rounded=0;whiteSpace=wrap;html=1;fillColor=#fff2cc;strokeColor=#d6b656;strokeWidth=2;" vertex="1" parent="1">
          <mxGeometry x="360" y="560" width="20" height="20" as="geometry" />
        </mxCell>
        <mxCell id="0NaVsoEw5bRBz_IptEVe-205" value="" style="rounded=0;whiteSpace=wrap;html=1;fillColor=#fff2cc;strokeColor=#d6b656;strokeWidth=2;" vertex="1" parent="1">
          <mxGeometry x="380" y="560" width="20" height="20" as="geometry" />
        </mxCell>
        <mxCell id="0NaVsoEw5bRBz_IptEVe-206" value="" style="rounded=0;whiteSpace=wrap;html=1;fillColor=#fff2cc;strokeColor=#d6b656;strokeWidth=2;" vertex="1" parent="1">
          <mxGeometry x="400" y="560" width="20" height="20" as="geometry" />
        </mxCell>
        <mxCell id="0NaVsoEw5bRBz_IptEVe-207" value="" style="rounded=0;whiteSpace=wrap;html=1;fillColor=#fff2cc;strokeColor=#d6b656;strokeWidth=2;" vertex="1" parent="1">
          <mxGeometry x="340" y="580" width="20" height="20" as="geometry" />
        </mxCell>
        <mxCell id="0NaVsoEw5bRBz_IptEVe-208" value="" style="rounded=0;whiteSpace=wrap;html=1;fillColor=#fff2cc;strokeColor=#d6b656;strokeWidth=2;" vertex="1" parent="1">
          <mxGeometry x="360" y="580" width="20" height="20" as="geometry" />
        </mxCell>
        <mxCell id="0NaVsoEw5bRBz_IptEVe-209" value="" style="rounded=0;whiteSpace=wrap;html=1;fillColor=#fff2cc;strokeColor=#d6b656;strokeWidth=2;" vertex="1" parent="1">
          <mxGeometry x="380" y="580" width="20" height="20" as="geometry" />
        </mxCell>
        <mxCell id="0NaVsoEw5bRBz_IptEVe-210" value="" style="rounded=0;whiteSpace=wrap;html=1;fillColor=#fff2cc;strokeColor=#d6b656;strokeWidth=2;" vertex="1" parent="1">
          <mxGeometry x="400" y="580" width="20" height="20" as="geometry" />
        </mxCell>
        <mxCell id="0NaVsoEw5bRBz_IptEVe-212" style="edgeStyle=orthogonalEdgeStyle;rounded=0;orthogonalLoop=1;jettySize=auto;html=1;entryX=0;entryY=0.5;entryDx=0;entryDy=0;endArrow=none;endFill=0;strokeWidth=2;fillColor=#dae8fc;strokeColor=#6c8ebf;" edge="1" parent="1" source="0NaVsoEw5bRBz_IptEVe-211" target="0NaVsoEw5bRBz_IptEVe-54">
          <mxGeometry relative="1" as="geometry" />
        </mxCell>
        <mxCell id="0NaVsoEw5bRBz_IptEVe-211" value="&lt;b&gt;&lt;font color=&quot;#204a87&quot;&gt;Batch 1&lt;/font&gt;&lt;/b&gt;" style="text;html=1;align=center;verticalAlign=middle;whiteSpace=wrap;rounded=0;" vertex="1" parent="1">
          <mxGeometry x="40" y="185" width="60" height="30" as="geometry" />
        </mxCell>
        <mxCell id="0NaVsoEw5bRBz_IptEVe-213" style="edgeStyle=orthogonalEdgeStyle;rounded=0;orthogonalLoop=1;jettySize=auto;html=1;entryX=0;entryY=0.5;entryDx=0;entryDy=0;endArrow=none;endFill=0;strokeWidth=2;fillColor=#dae8fc;strokeColor=#6c8ebf;" edge="1" parent="1" source="0NaVsoEw5bRBz_IptEVe-214">
          <mxGeometry relative="1" as="geometry">
            <mxPoint x="120" y="320" as="targetPoint" />
          </mxGeometry>
        </mxCell>
        <mxCell id="0NaVsoEw5bRBz_IptEVe-214" value="&lt;b&gt;&lt;font color=&quot;#204a87&quot;&gt;Batch 2&lt;br&gt;&lt;/font&gt;&lt;/b&gt;" style="text;html=1;align=center;verticalAlign=middle;whiteSpace=wrap;rounded=0;" vertex="1" parent="1">
          <mxGeometry x="40" y="305" width="60" height="30" as="geometry" />
        </mxCell>
        <mxCell id="0NaVsoEw5bRBz_IptEVe-215" style="edgeStyle=orthogonalEdgeStyle;rounded=0;orthogonalLoop=1;jettySize=auto;html=1;entryX=0;entryY=0.5;entryDx=0;entryDy=0;endArrow=none;endFill=0;strokeWidth=2;fillColor=#dae8fc;strokeColor=#6c8ebf;" edge="1" parent="1" source="0NaVsoEw5bRBz_IptEVe-216">
          <mxGeometry relative="1" as="geometry">
            <mxPoint x="120" y="440" as="targetPoint" />
          </mxGeometry>
        </mxCell>
        <mxCell id="0NaVsoEw5bRBz_IptEVe-216" value="&lt;b&gt;&lt;font color=&quot;#204a87&quot;&gt;Batch 3&lt;br&gt;&lt;/font&gt;&lt;/b&gt;" style="text;html=1;align=center;verticalAlign=middle;whiteSpace=wrap;rounded=0;" vertex="1" parent="1">
          <mxGeometry x="40" y="425" width="60" height="30" as="geometry" />
        </mxCell>
        <mxCell id="0NaVsoEw5bRBz_IptEVe-217" style="edgeStyle=orthogonalEdgeStyle;rounded=0;orthogonalLoop=1;jettySize=auto;html=1;entryX=0;entryY=0.5;entryDx=0;entryDy=0;endArrow=none;endFill=0;strokeWidth=2;fillColor=#dae8fc;strokeColor=#6c8ebf;" edge="1" parent="1" source="0NaVsoEw5bRBz_IptEVe-218">
          <mxGeometry relative="1" as="geometry">
            <mxPoint x="120" y="560" as="targetPoint" />
          </mxGeometry>
        </mxCell>
        <mxCell id="0NaVsoEw5bRBz_IptEVe-218" value="&lt;b&gt;&lt;font color=&quot;#204a87&quot;&gt;Batch 4&lt;br&gt;&lt;/font&gt;&lt;/b&gt;" style="text;html=1;align=center;verticalAlign=middle;whiteSpace=wrap;rounded=0;" vertex="1" parent="1">
          <mxGeometry x="40" y="545" width="60" height="30" as="geometry" />
        </mxCell>
        <mxCell id="0NaVsoEw5bRBz_IptEVe-220" style="edgeStyle=orthogonalEdgeStyle;rounded=0;orthogonalLoop=1;jettySize=auto;html=1;exitX=0.5;exitY=1;exitDx=0;exitDy=0;entryX=0.5;entryY=0;entryDx=0;entryDy=0;fillColor=#f8cecc;strokeColor=#b85450;strokeWidth=2;endArrow=none;endFill=0;" edge="1" parent="1" source="0NaVsoEw5bRBz_IptEVe-219" target="0NaVsoEw5bRBz_IptEVe-19">
          <mxGeometry relative="1" as="geometry" />
        </mxCell>
        <mxCell id="0NaVsoEw5bRBz_IptEVe-219" value="&lt;font color=&quot;#a40000&quot;&gt;&lt;b&gt;Channel 1&lt;/b&gt;&lt;b&gt;&lt;br&gt;&lt;/b&gt;&lt;/font&gt;" style="text;html=1;align=center;verticalAlign=middle;whiteSpace=wrap;rounded=0;" vertex="1" parent="1">
          <mxGeometry x="150" y="90" width="60" height="30" as="geometry" />
        </mxCell>
        <mxCell id="0NaVsoEw5bRBz_IptEVe-221" style="edgeStyle=orthogonalEdgeStyle;rounded=0;orthogonalLoop=1;jettySize=auto;html=1;exitX=0.5;exitY=1;exitDx=0;exitDy=0;entryX=0.5;entryY=0;entryDx=0;entryDy=0;fillColor=#f8cecc;strokeColor=#b85450;strokeWidth=2;endArrow=none;endFill=0;" edge="1" parent="1" source="0NaVsoEw5bRBz_IptEVe-222">
          <mxGeometry relative="1" as="geometry">
            <mxPoint x="280" y="150" as="targetPoint" />
          </mxGeometry>
        </mxCell>
        <mxCell id="0NaVsoEw5bRBz_IptEVe-222" value="&lt;font color=&quot;#a40000&quot;&gt;&lt;b&gt;Channel 2&lt;br&gt;&lt;/b&gt;&lt;/font&gt;" style="text;html=1;align=center;verticalAlign=middle;whiteSpace=wrap;rounded=0;" vertex="1" parent="1">
          <mxGeometry x="250" y="90" width="60" height="30" as="geometry" />
        </mxCell>
        <mxCell id="0NaVsoEw5bRBz_IptEVe-223" style="edgeStyle=orthogonalEdgeStyle;rounded=0;orthogonalLoop=1;jettySize=auto;html=1;exitX=0.5;exitY=1;exitDx=0;exitDy=0;entryX=0.5;entryY=0;entryDx=0;entryDy=0;fillColor=#f8cecc;strokeColor=#b85450;strokeWidth=2;endArrow=none;endFill=0;" edge="1" parent="1" source="0NaVsoEw5bRBz_IptEVe-224">
          <mxGeometry relative="1" as="geometry">
            <mxPoint x="380" y="150" as="targetPoint" />
          </mxGeometry>
        </mxCell>
        <mxCell id="0NaVsoEw5bRBz_IptEVe-224" value="&lt;font color=&quot;#a40000&quot;&gt;&lt;b&gt;Channel 3&lt;/b&gt;&lt;b&gt;&lt;br&gt;&lt;/b&gt;&lt;/font&gt;" style="text;html=1;align=center;verticalAlign=middle;whiteSpace=wrap;rounded=0;" vertex="1" parent="1">
          <mxGeometry x="350" y="90" width="60" height="30" as="geometry" />
        </mxCell>
        <mxCell id="0NaVsoEw5bRBz_IptEVe-226" style="rounded=0;orthogonalLoop=1;jettySize=auto;html=1;exitX=0.5;exitY=0;exitDx=0;exitDy=0;entryX=1;entryY=1;entryDx=0;entryDy=0;fillColor=#fff2cc;strokeColor=#d6b656;strokeWidth=2;endArrow=none;endFill=0;" edge="1" parent="1" source="0NaVsoEw5bRBz_IptEVe-227" target="0NaVsoEw5bRBz_IptEVe-174">
          <mxGeometry relative="1" as="geometry">
            <mxPoint x="180" y="710" as="targetPoint" />
          </mxGeometry>
        </mxCell>
        <mxCell id="0NaVsoEw5bRBz_IptEVe-227" value="&lt;font color=&quot;#c4a000&quot;&gt;&lt;b&gt;2D tensor&lt;br&gt;&lt;/b&gt;&lt;/font&gt;" style="text;html=1;align=center;verticalAlign=middle;whiteSpace=wrap;rounded=0;" vertex="1" parent="1">
          <mxGeometry x="150" y="640" width="60" height="30" as="geometry" />
        </mxCell>
      </root>
    </mxGraphModel>
  </diagram>
</mxfile>
